<svg width="83" height="45" viewBox="0 0 83 45" fill="none" xmlns="http://www.w3.org/2000/svg">
<g filter="url(#filter0_d_106_27)">
<path fill-rule="evenodd" clip-rule="evenodd" d="M7.1875 10.9375V32.6562C7.1875 33.4271 7.59375 34.25 8.40625 35.125C9.21875 36 10.0938 36.625 11.0312 37L17.5 33.3438V31.9375C15.75 31.5833 14.875 30.1146 14.875 27.5312V7.125L17 6.71875C18.3542 6.71875 19.2917 7.35417 19.8125 8.625C20.3542 9.875 20.625 11.6979 20.625 14.0938V32.6562C20.625 33.4271 21.0312 34.25 21.8438 35.125C22.6562 36 23.5312 36.625 24.4688 37L31.4688 33.0938V31.6875C29.3646 31.2708 28.3125 29.8854 28.3125 27.5312V8.125C28.3125 7.125 28.0312 6.04167 27.4688 4.875C26.9271 3.6875 26.2188 2.66667 25.3438 1.8125C24.4896 0.958333 23.6042 0.53125 22.6875 0.53125C22.1042 0.53125 20.2292 1.42708 17.0625 3.21875C15.9167 3.84375 15.1875 4.25 14.875 4.4375C14.875 3.54167 14.5208 2.75 13.8125 2.0625C13.125 1.375 12.5729 0.958333 12.1562 0.8125C11.9479 0.729167 11.75 0.666667 11.5625 0.625C11.375 0.5625 11.1979 0.510417 11.0312 0.46875C6.67708 3.01042 4.35417 4.3125 4.0625 4.375V5.78125C4.95833 5.78125 5.69792 6.29167 6.28125 7.3125C6.88542 8.33333 7.1875 9.54167 7.1875 10.9375ZM44.9727 10.9375V32.6562C44.9727 33.4271 45.3789 34.25 46.1914 35.125C47.0039 36 47.8789 36.625 48.8164 37L55.2852 33.3438V31.9375C53.5352 31.5833 52.6602 30.1146 52.6602 27.5312V7.125L54.7852 6.71875C56.1393 6.71875 57.0768 7.35417 57.5977 8.625C58.1393 9.875 58.4102 11.6979 58.4102 14.0938V32.6562C58.4102 33.4271 58.8164 34.25 59.6289 35.125C60.4414 36 61.3164 36.625 62.2539 37L69.2539 33.0938V31.6875C67.1497 31.2708 66.0977 29.8854 66.0977 27.5312V8.125C66.0977 7.125 65.8164 6.04167 65.2539 4.875C64.7122 3.6875 64.0039 2.66667 63.1289 1.8125C62.2747 0.958333 61.3893 0.53125 60.4727 0.53125C59.8893 0.53125 58.0143 1.42708 54.8477 3.21875C53.7018 3.84375 52.9727 4.25 52.6602 4.4375C52.6602 3.54167 52.306 2.75 51.5977 2.0625C50.9102 1.375 50.3581 0.958333 49.9414 0.8125C49.7331 0.729167 49.5352 0.666667 49.3477 0.625C49.1602 0.5625 48.9831 0.510417 48.8164 0.46875C44.4622 3.01042 42.1393 4.3125 41.8477 4.375V5.78125C42.7435 5.78125 43.4831 6.29167 44.0664 7.3125C44.6706 8.33333 44.9727 9.54167 44.9727 10.9375ZM70.5527 29V32.9062C70.5527 33.9271 70.7715 34.8646 71.209 35.7188C71.6465 36.5729 72.1152 37 72.6152 37C72.8027 37 73.1986 36.9062 73.8027 36.7188C74.4069 36.5104 75.0527 36.2812 75.7402 36.0312C76.4277 35.7604 77.0215 35.5104 77.5215 35.2812C78.0423 35.0312 78.3027 34.875 78.3027 34.8125V30.1562C78.3027 29.3854 78.0423 28.6354 77.5215 27.9062C77.0006 27.1771 76.5944 26.8125 76.3027 26.8125C76.1569 26.8125 75.7819 26.9167 75.1777 27.125C74.5944 27.3125 73.9381 27.5417 73.209 27.8125C72.5006 28.0833 71.8756 28.3333 71.334 28.5625C70.8131 28.7917 70.5527 28.9375 70.5527 29ZM32.7676 32.9062V29C32.7676 28.9375 33.028 28.7917 33.5488 28.5625C34.0905 28.3333 34.7155 28.0833 35.4238 27.8125C36.153 27.5417 36.8092 27.3125 37.3926 27.125C37.9967 26.9167 38.3717 26.8125 38.5176 26.8125C38.8092 26.8125 39.2155 27.1771 39.7363 27.9062C40.2572 28.6354 40.5176 29.3854 40.5176 30.1562V34.8125C40.5176 34.875 40.2572 35.0312 39.7363 35.2812C39.2363 35.5104 38.6426 35.7604 37.9551 36.0312C37.2676 36.2812 36.6217 36.5104 36.0176 36.7188C35.4134 36.9062 35.0176 37 34.8301 37C34.3301 37 33.8613 36.5729 33.4238 35.7188C32.9863 34.8646 32.7676 33.9271 32.7676 32.9062Z" fill="white"/>
</g>
<g filter="url(#filter1_d_106_27)">
<path fill-rule="evenodd" clip-rule="evenodd" d="M11.0312 0.46875C11.1979 0.510418 11.375 0.5625 11.5625 0.625C11.75 0.666668 11.9479 0.729168 12.1562 0.8125C12.5729 0.958332 13.125 1.375 13.8125 2.0625C14.2296 2.46733 14.5239 2.90828 14.6954 3.38535C14.8151 3.71845 14.875 4.06917 14.875 4.4375C15.0563 4.32869 15.378 4.14622 15.84 3.89008C16.1741 3.70483 16.5816 3.48106 17.0625 3.21875C20.2292 1.42708 22.1042 0.53125 22.6875 0.53125C23.6042 0.53125 24.4896 0.958332 25.3438 1.8125C26.2188 2.66667 26.9271 3.6875 27.4688 4.875C28.0312 6.04167 28.3125 7.125 28.3125 8.125V27.5312C28.3125 29.8854 29.3646 31.2708 31.4688 31.6875V33.0938L24.4688 37C23.5312 36.625 22.6562 36 21.8438 35.125C21.0312 34.25 20.625 33.4271 20.625 32.6562V14.0938C20.625 11.6979 20.3542 9.875 19.8125 8.625C19.2917 7.35417 18.3542 6.71875 17 6.71875L14.875 7.125V27.5312C14.875 30.1146 15.75 31.5833 17.5 31.9375V33.3438L11.0312 37C10.0938 36.625 9.21875 36 8.40625 35.125C7.59375 34.25 7.1875 33.4271 7.1875 32.6562V10.9375C7.1875 9.54167 6.88542 8.33333 6.28125 7.3125C5.69792 6.29167 4.95833 5.78125 4.0625 5.78125V4.375C4.35417 4.3125 6.67708 3.01042 11.0312 0.46875ZM28.3052 30.9407C28.8515 31.6601 29.5909 32.1541 30.4688 32.454V32.5066L24.4211 35.8814C23.7905 35.5609 23.1748 35.0888 22.5765 34.4445C21.8448 33.6565 21.625 33.0669 21.625 32.6562V14.0938C21.625 11.6545 21.3538 9.67261 20.734 8.23647C20.415 7.46223 19.9406 6.81543 19.2798 6.36753C18.6153 5.91715 17.8373 5.71875 17 5.71875H16.9053L13.875 6.29807V27.5312C13.875 28.9179 14.1069 30.1332 14.6721 31.0821C15.1151 31.8256 15.7356 32.3587 16.5 32.6753V32.7603L10.9806 35.8799C10.3511 35.5594 9.73632 35.0878 9.13904 34.4445C8.40731 33.6565 8.1875 33.0669 8.1875 32.6562V10.9375C8.1875 9.39726 7.8535 8.00869 7.14573 6.80979C6.64739 5.94019 5.9838 5.27765 5.14775 4.97023C5.48556 4.79342 5.94172 4.54376 6.5124 4.22387C7.61471 3.60598 9.16686 2.71338 11.1665 1.54758C11.1927 1.556 11.2193 1.56469 11.2463 1.57368L11.2952 1.59L11.3456 1.60119C11.4725 1.62939 11.6185 1.67444 11.7849 1.74098L11.8052 1.74912L11.8259 1.75636C12.0112 1.82123 12.4261 2.09029 13.1054 2.76961L13.1107 2.77488L13.116 2.78008C13.6521 3.30043 13.875 3.84102 13.875 4.4375V6.20369L15.3895 5.29499C15.6807 5.12024 16.3902 4.72456 17.5414 4.09665L17.5482 4.09293L17.5549 4.0891C19.1307 3.19757 20.368 2.53872 21.2749 2.10543C21.7293 1.88829 22.0852 1.73534 22.3502 1.63878C22.5503 1.56586 22.6535 1.54237 22.6867 1.53482C22.695 1.53293 22.699 1.53204 22.6989 1.53162C22.6989 1.53138 22.6976 1.5313 22.6952 1.53127C23.2684 1.53356 23.9114 1.79443 24.6366 2.51966L24.6452 2.52807C25.426 3.29028 26.065 4.20724 26.5589 5.29L26.5634 5.2997L26.568 5.3093C27.0837 6.37902 27.3125 7.31298 27.3125 8.125V27.5312C27.3125 28.8504 27.6073 30.0218 28.3052 30.9407ZM48.8164 0.46875C48.9831 0.510418 49.1602 0.5625 49.3477 0.625C49.5352 0.666668 49.7331 0.729168 49.9414 0.8125C50.3581 0.958332 50.9102 1.375 51.5977 2.0625C52.0148 2.46733 52.309 2.90828 52.4805 3.38535C52.6003 3.71845 52.6602 4.06917 52.6602 4.4375C52.8415 4.32869 53.1632 4.14622 53.6251 3.89008C53.9593 3.70483 54.3668 3.48106 54.8477 3.21875C58.0143 1.42708 59.8893 0.53125 60.4727 0.53125C61.3893 0.53125 62.2747 0.958332 63.1289 1.8125C64.0039 2.66667 64.7122 3.6875 65.2539 4.875C65.8164 6.04167 66.0977 7.125 66.0977 8.125V27.5312C66.0977 29.8854 67.1497 31.2708 69.2539 31.6875V33.0938L62.2539 37C61.3164 36.625 60.4414 36 59.6289 35.125C58.8164 34.25 58.4102 33.4271 58.4102 32.6562V14.0938C58.4102 11.6979 58.1393 9.875 57.5977 8.625C57.0768 7.35417 56.1393 6.71875 54.7852 6.71875L52.6602 7.125V27.5312C52.6602 30.1146 53.5352 31.5833 55.2852 31.9375V33.3438L48.8164 37C47.8789 36.625 47.0039 36 46.1914 35.125C45.3789 34.25 44.9727 33.4271 44.9727 32.6562V10.9375C44.9727 9.54167 44.6706 8.33333 44.0664 7.3125C43.4831 6.29167 42.7435 5.78125 41.8477 5.78125V4.375C42.1393 4.3125 44.4622 3.01042 48.8164 0.46875ZM66.0903 30.9407C66.6366 31.6601 67.3761 32.1541 68.2539 32.454V32.5066L62.2062 35.8814C61.5757 35.5609 60.9599 35.0888 60.3617 34.4445C59.63 33.6565 59.4102 33.0669 59.4102 32.6562V14.0938C59.4102 11.6544 59.139 9.67252 58.5191 8.23638C58.2001 7.46218 57.7258 6.81541 57.065 6.36753C56.4005 5.91715 55.6224 5.71875 54.7852 5.71875H54.6904L51.6602 6.29807V27.5312C51.6602 28.9179 51.892 30.1332 52.4573 31.0821C52.9002 31.8256 53.5208 32.3587 54.2852 32.6753V32.7603L48.7658 35.8799C48.1363 35.5594 47.5215 35.0878 46.9242 34.4445C46.1925 33.6565 45.9727 33.0669 45.9727 32.6562V10.9375C45.9727 9.39728 45.6387 8.00873 44.9309 6.80984C44.4326 5.94021 43.769 5.27766 42.9329 4.97023C43.2707 4.79342 43.7269 4.54376 44.2976 4.22387C45.3999 3.60598 46.952 2.71338 48.9516 1.54758C48.9779 1.556 49.0045 1.56469 49.0314 1.57368L49.0804 1.59L49.1307 1.60119C49.2576 1.62939 49.4037 1.67444 49.57 1.74098L49.5904 1.74912L49.6111 1.75636C49.7964 1.82123 50.2112 2.09029 50.8905 2.76961L50.8958 2.77488L50.9012 2.78008C51.4373 3.30043 51.6602 3.84102 51.6602 4.4375V6.20369L53.1747 5.29499C53.4659 5.12024 54.1753 4.72456 55.3265 4.09665L55.3333 4.09293L55.3401 4.0891C56.9158 3.19757 58.1531 2.53872 59.06 2.10543C59.5145 1.88829 59.8704 1.73534 60.1353 1.63878C60.3355 1.56586 60.4387 1.54237 60.4719 1.53482C60.4802 1.53293 60.4841 1.53204 60.4841 1.53162C60.484 1.53138 60.4828 1.5313 60.4803 1.53127C61.0536 1.53357 61.6965 1.79443 62.4217 2.51966L62.4304 2.52807C63.2112 3.29028 63.8502 4.20724 64.3441 5.29L64.3485 5.2997L64.3531 5.3093C64.8689 6.37902 65.0977 7.31298 65.0977 8.125V27.5312C65.0977 28.8504 65.3925 30.0218 66.0903 30.9407ZM70.5527 32.9062V29C70.5527 28.9375 70.8131 28.7917 71.334 28.5625C71.8756 28.3333 72.5006 28.0833 73.209 27.8125C73.9381 27.5417 74.5944 27.3125 75.1777 27.125C75.7819 26.9167 76.1569 26.8125 76.3027 26.8125C76.5944 26.8125 77.0006 27.1771 77.5215 27.9062C78.0423 28.6354 78.3027 29.3854 78.3027 30.1562V34.8125C78.3027 34.875 78.0423 35.0312 77.5215 35.2812C77.0215 35.5104 76.4277 35.7604 75.7402 36.0312C75.0527 36.2812 74.4069 36.5104 73.8027 36.7188C73.1986 36.9062 72.8027 37 72.6152 37C72.1152 37 71.6465 36.5729 71.209 35.7188C70.7715 34.8646 70.5527 33.9271 70.5527 32.9062ZM71.5527 32.9062V29.5604C71.6059 29.536 71.6649 29.5094 71.7302 29.4807C72.256 29.2584 72.8661 29.0143 73.5617 28.7482C74.2786 28.482 74.9189 28.2586 75.4837 28.077L75.4938 28.0738L75.5037 28.0704C75.7971 27.9692 76.0203 27.8984 76.1797 27.8541L76.1833 27.8532C76.3074 27.9699 76.4821 28.1715 76.7077 28.4875C77.1278 29.0755 77.3027 29.6263 77.3027 30.1562V34.2748C77.2423 34.3052 77.1739 34.3388 77.0969 34.3758C76.6224 34.5931 76.053 34.8331 75.3861 35.0959C74.7134 35.3405 74.0819 35.5646 73.4915 35.7683C73.2078 35.8561 72.9866 35.9177 72.8223 35.9566C72.7238 35.9799 72.6634 35.9907 72.6324 35.9957C72.6176 35.9866 72.5944 35.9699 72.5622 35.9405C72.4496 35.838 72.2883 35.6325 72.099 35.2629C71.7384 34.5588 71.5527 33.7789 71.5527 32.9062ZM72.652 36.0056C72.6521 36.0059 72.6503 36.0054 72.6466 36.0036C72.6501 36.0046 72.6519 36.0054 72.652 36.0056ZM32.7676 29V32.9062C32.7676 33.9271 32.9863 34.8646 33.4238 35.7188C33.8613 36.5729 34.3301 37 34.8301 37C35.0176 37 35.4134 36.9062 36.0176 36.7188C36.6217 36.5104 37.2676 36.2812 37.9551 36.0312C38.6426 35.7604 39.2363 35.5104 39.7363 35.2812C40.2572 35.0312 40.5176 34.875 40.5176 34.8125V30.1562C40.5176 29.3854 40.2572 28.6354 39.7363 27.9062C39.2155 27.1771 38.8092 26.8125 38.5176 26.8125C38.3717 26.8125 37.9967 26.9167 37.3926 27.125C36.8092 27.3125 36.153 27.5417 35.4238 27.8125C34.7155 28.0833 34.0905 28.3333 33.5488 28.5625C33.028 28.7917 32.7676 28.9375 32.7676 29ZM33.7676 29.5604V32.9062C33.7676 33.7789 33.9532 34.5588 34.3139 35.2629C34.5032 35.6325 34.6645 35.838 34.777 35.9405C34.8093 35.9699 34.8325 35.9866 34.8473 35.9957C34.8782 35.9907 34.9387 35.9799 35.0371 35.9566C35.2014 35.9177 35.4227 35.8561 35.7064 35.7683C36.2968 35.5646 36.9283 35.3405 37.601 35.0959C38.2679 34.833 38.8373 34.593 39.3118 34.3758C39.3887 34.3388 39.4571 34.3052 39.5176 34.2748V30.1562C39.5176 29.6263 39.3426 29.0755 38.9226 28.4875C38.6969 28.1715 38.5223 27.9699 38.3981 27.8532L38.3946 27.8541C38.2351 27.8984 38.0119 27.9692 37.7186 28.0704L37.7086 28.0738L37.6986 28.077C37.1338 28.2586 36.4935 28.482 35.7766 28.7482C35.081 29.0142 34.4708 29.2584 33.945 29.4807C33.8798 29.5095 33.8207 29.536 33.7676 29.5604ZM34.8668 36.0056C34.8669 36.0057 34.8666 36.0057 34.8661 36.0055C34.8652 36.0053 34.8637 36.0047 34.8616 36.0037C34.8635 36.0042 34.8649 36.0047 34.8658 36.0051C34.8664 36.0053 34.8668 36.0056 34.8668 36.0056Z" fill="black"/>
</g>
<defs>
<filter id="filter0_d_106_27" x="0.0625" y="0.46875" width="82.2402" height="44.5312" filterUnits="userSpaceOnUse" color-interpolation-filters="sRGB">
<feFlood flood-opacity="0" result="BackgroundImageFix"/>
<feColorMatrix in="SourceAlpha" type="matrix" values="0 0 0 0 0 0 0 0 0 0 0 0 0 0 0 0 0 0 127 0" result="hardAlpha"/>
<feOffset dy="4"/>
<feGaussianBlur stdDeviation="2"/>
<feComposite in2="hardAlpha" operator="out"/>
<feColorMatrix type="matrix" values="0 0 0 0 0 0 0 0 0 0 0 0 0 0 0 0 0 0 0.25 0"/>
<feBlend mode="normal" in2="BackgroundImageFix" result="effect1_dropShadow_106_27"/>
<feBlend mode="normal" in="SourceGraphic" in2="effect1_dropShadow_106_27" result="shape"/>
</filter>
<filter id="filter1_d_106_27" x="0.0625" y="0.46875" width="82.2402" height="44.5312" filterUnits="userSpaceOnUse" color-interpolation-filters="sRGB">
<feFlood flood-opacity="0" result="BackgroundImageFix"/>
<feColorMatrix in="SourceAlpha" type="matrix" values="0 0 0 0 0 0 0 0 0 0 0 0 0 0 0 0 0 0 127 0" result="hardAlpha"/>
<feOffset dy="4"/>
<feGaussianBlur stdDeviation="2"/>
<feComposite in2="hardAlpha" operator="out"/>
<feColorMatrix type="matrix" values="0 0 0 0 0 0 0 0 0 0 0 0 0 0 0 0 0 0 0.25 0"/>
<feBlend mode="normal" in2="BackgroundImageFix" result="effect1_dropShadow_106_27"/>
<feBlend mode="normal" in="SourceGraphic" in2="effect1_dropShadow_106_27" result="shape"/>
</filter>
</defs>
</svg>
