<svg width="213" height="67" viewBox="0 0 213 67" fill="none" xmlns="http://www.w3.org/2000/svg">
<path fill-rule="evenodd" clip-rule="evenodd" d="M131.565 2.68932L131.552 2.69487L131.539 2.70062C131.263 2.82236 130.997 2.94681 130.782 3.06749C130.683 3.12271 130.523 3.21659 130.363 3.34451C130.286 3.40581 130.142 3.52806 130 3.71012C129.889 3.8511 129.563 4.29795 129.563 4.96875V8.875C129.563 10.1921 129.848 11.445 130.44 12.5993C130.908 13.5135 131.877 14.9688 133.626 14.9688C133.969 14.9688 134.309 14.8957 134.524 14.8446C134.784 14.7831 135.082 14.6984 135.406 14.5976L135.436 14.5884L135.465 14.5782C136.101 14.3592 136.774 14.1094 137.484 13.8296C138.189 13.552 138.813 13.2898 139.352 13.0432C139.623 12.9234 139.883 12.8012 140.095 12.6825C140.194 12.6273 140.354 12.5334 140.514 12.4055C140.591 12.3442 140.735 12.2219 140.877 12.0399C140.987 11.8989 141.313 11.452 141.313 10.7812V6.125C141.313 4.87245 140.882 3.72398 140.16 2.71252C139.861 2.29433 139.532 1.88823 139.173 1.5662C138.885 1.30803 138.232 0.78125 137.313 0.78125C136.932 0.78125 136.553 0.886436 136.388 0.932339C136.149 0.998575 135.868 1.08891 135.557 1.1961C134.944 1.39347 134.265 1.6308 133.523 1.9064L133.514 1.90973L133.505 1.91315C132.781 2.19008 132.134 2.44889 131.565 2.68932ZM139.313 10.7812C139.313 10.8438 139.053 10.9896 138.532 11.2188C138.032 11.4479 137.438 11.6979 136.751 11.9688C136.063 12.2396 135.418 12.4792 134.813 12.6875C134.209 12.875 133.813 12.9688 133.626 12.9688C133.126 12.9688 132.657 12.5417 132.22 11.6875C131.782 10.8333 131.563 9.89583 131.563 8.875V4.96875C131.563 4.90625 131.824 4.76042 132.345 4.53125C132.886 4.30208 133.511 4.05208 134.22 3.78125C134.949 3.51042 135.605 3.28125 136.188 3.09375C136.793 2.88542 137.168 2.78125 137.313 2.78125C137.605 2.78125 138.011 3.14583 138.532 3.875C139.053 4.60417 139.313 5.35417 139.313 6.125V10.7812ZM144.845 50.8544V46.6455L143.241 46.321C142.892 46.2502 142.729 46.1164 142.594 45.8904C142.412 45.5851 142.22 44.9768 142.22 43.875V21.2188C142.22 19.7276 141.441 18.4381 140.467 17.3891C139.489 16.3365 138.377 15.5212 137.119 15.018L136.232 14.6632L127.907 19.3281V23.5613L129.533 23.8709C129.867 23.9346 130.021 24.0588 130.155 24.2839C130.338 24.5936 130.532 25.2155 130.532 26.3438V49C130.532 50.4912 131.311 51.7807 132.285 52.8297C133.263 53.8822 134.375 54.6976 135.633 55.2007L136.524 55.5572L144.845 50.8544ZM133.751 51.4688C134.563 52.3438 135.438 52.9688 136.376 53.3438L142.845 49.6875V48.2812C141.095 47.9271 140.22 46.4583 140.22 43.875V21.2188C140.22 20.4479 139.813 19.625 139.001 18.75C138.188 17.875 137.313 17.25 136.376 16.875L129.907 20.5V21.9062C131.657 22.2396 132.532 23.7188 132.532 26.3438V49C132.532 49.7708 132.938 50.5938 133.751 51.4688ZM155.65 21.9062C154.734 22.3438 154.275 22.6458 154.275 22.8125V43.875C154.275 45.25 154.525 46.5625 155.025 47.8125C155.525 49.0625 156.171 50.0833 156.963 50.875C157.755 51.6667 158.588 52.0625 159.463 52.0625C160.102 52.0625 162.206 51.2391 165.775 49.5923C166.398 49.3053 167.064 48.9933 167.775 48.6562V56.6562C167.775 58.7604 167.327 60.3229 166.432 61.3438C166.233 61.5673 166.005 61.7761 165.747 61.9701C165.572 62.1014 165.384 62.226 165.182 62.3438C164.702 62.6562 164.286 62.8125 163.932 62.8125L164.963 64.875C165.024 64.875 169.225 63.0364 177.565 59.3592L178.025 59.1562V57.375C177.088 57.375 176.421 57.125 176.025 56.625C175.65 56.1458 175.463 55.3333 175.463 54.1875V26.2188C175.463 24.6354 175.15 23.1354 174.525 21.7188C173.921 20.3021 173.192 19.1458 172.338 18.25C171.505 17.3333 170.734 16.875 170.025 16.875C169.609 16.875 168.807 17.0521 167.619 17.4062C166.432 17.7396 165.077 18.1771 163.557 18.7188C162.057 19.2396 160.598 19.7917 159.182 20.375C157.765 20.9375 156.588 21.4479 155.65 21.9062ZM154.781 20.1052C154.3 20.3349 153.861 20.5651 153.519 20.791C153.353 20.9001 153.133 21.0579 152.931 21.2639L152.93 21.2655C152.812 21.3861 152.275 21.9346 152.275 22.8125V43.875C152.275 45.4989 152.572 47.0639 153.168 48.5553C153.749 50.0069 154.531 51.2714 155.549 52.2892C156.606 53.3461 157.92 54.0625 159.463 54.0625C160 54.0625 160.586 53.8924 161.018 53.7531C161.527 53.5888 162.147 53.3546 162.862 53.0616C163.675 52.7283 164.647 52.3045 165.775 51.792V56.6562C165.775 58.5248 165.371 59.5174 164.932 60.0202C164.759 60.2137 164.516 60.4167 164.174 60.6162L164.131 60.6413L164.089 60.6685C163.965 60.7494 163.88 60.7919 163.833 60.8125H160.696L163.727 66.875H164.963C165.194 66.875 165.376 66.8324 165.41 66.8246L165.413 66.8238C165.476 66.8095 165.524 66.7951 165.549 66.7877C165.6 66.7722 165.641 66.7576 165.659 66.751C165.686 66.7414 165.712 66.7316 165.733 66.7232L165.764 66.711L165.803 66.6955L165.84 66.6803C165.878 66.6649 165.918 66.6479 165.962 66.6298C166.113 66.5662 166.329 66.4736 166.607 66.3538C167.164 66.1134 167.988 65.7543 169.077 65.2774C171.257 64.3232 174.509 62.8926 178.832 60.9862L180.025 60.4601V55.375H178.025C177.805 55.375 177.665 55.3527 177.587 55.3334C177.576 55.3015 177.565 55.2597 177.552 55.2065C177.503 54.991 177.463 54.661 177.463 54.1875V26.2188C177.463 24.3683 177.097 22.5967 176.36 20.9234C175.689 19.3508 174.846 17.9872 173.801 16.8868C172.857 15.853 171.59 14.875 170.025 14.875C169.272 14.875 168.197 15.1472 167.063 15.4851C165.826 15.8327 164.435 16.283 162.893 16.8321C161.365 17.3626 159.878 17.9255 158.432 18.5209C156.996 19.091 155.776 19.6192 154.781 20.1052ZM167.775 28.375V45.9688C167.036 45.9688 166.369 45.8975 165.775 45.7549C164.796 45.5199 164.015 45.0912 163.432 44.4688C162.494 43.4688 162.025 41.4792 162.025 38.5V23.7812C162.88 23.0938 163.817 22.75 164.838 22.75C166.796 22.75 167.775 24.625 167.775 28.375ZM164.025 24.8977C164.294 24.7948 164.562 24.75 164.838 24.75C164.99 24.75 165.037 24.7808 165.046 24.7869C165.062 24.7967 165.151 24.8571 165.268 25.0821C165.534 25.5908 165.775 26.609 165.775 28.375V43.6675C165.367 43.511 165.086 43.3092 164.891 43.1009C164.751 42.9515 164.514 42.5773 164.324 41.7679C164.137 40.9747 164.025 39.8986 164.025 38.5V24.8977ZM189.518 22.75V44C189.518 45.7083 189.84 47.2708 190.486 48.6875C191.132 50.1042 191.893 51.2396 192.768 52.0938C193.643 52.9271 194.424 53.3438 195.111 53.3438C195.528 53.3438 196.32 53.1667 197.486 52.8125C198.674 52.4375 200.007 51.9792 201.486 51.4375L201.488 51.4369C202.987 50.8954 204.435 50.3436 205.83 49.7812C207.226 49.1979 208.382 48.6875 209.299 48.25C210.236 47.8125 210.705 47.5312 210.705 47.4062V24.2188C210.705 23.5312 210.486 22.7708 210.049 21.9375C209.632 21.0833 209.111 20.2708 208.486 19.5C207.882 18.7292 207.278 18.1042 206.674 17.625C206.07 17.125 205.58 16.875 205.205 16.875C204.913 16.875 204.195 17.0521 203.049 17.4062C201.903 17.7604 200.57 18.2188 199.049 18.7812C197.549 19.3229 196.07 19.875 194.611 20.4375C193.153 21 191.934 21.5 190.955 21.9375C190.913 21.956 190.871 21.9742 190.83 21.9922C189.955 22.3779 189.518 22.6306 189.518 22.75ZM190.148 20.1075C189.655 20.3222 189.223 20.5256 188.893 20.712C188.736 20.8006 188.528 20.9267 188.334 21.087C188.239 21.1652 188.082 21.3045 187.934 21.5046C187.807 21.676 187.518 22.1145 187.518 22.75V44C187.518 45.9665 187.891 47.8156 188.667 49.5171C189.388 51.0999 190.278 52.458 191.37 53.5249L191.379 53.5335L191.388 53.542C192.377 54.4835 193.64 55.3438 195.111 55.3438C195.873 55.3438 196.946 55.0668 198.067 54.7263L198.078 54.723L198.089 54.7197C199.31 54.3341 200.67 53.8661 202.169 53.3175C203.689 52.7684 205.159 52.208 206.578 51.6363L206.589 51.6315L206.601 51.6266C208.011 51.0374 209.198 50.5142 210.153 50.0582C210.636 49.8326 211.06 49.6196 211.383 49.4259C211.536 49.3337 211.739 49.2036 211.927 49.0407C212.019 48.9609 212.169 48.8211 212.311 48.6229C212.431 48.454 212.705 48.024 212.705 47.4062V24.2188C212.705 23.1197 212.361 22.0461 211.833 21.0343C211.352 20.0524 210.756 19.1252 210.05 18.2532C209.382 17.402 208.678 16.6648 207.933 16.0711C207.294 15.5442 206.331 14.875 205.205 14.875C204.787 14.875 204.317 14.98 203.969 15.0659C203.556 15.1676 203.049 15.313 202.458 15.4954C201.27 15.8627 199.903 16.3329 198.362 16.9027C196.852 17.4484 195.361 18.0046 193.892 18.5715C192.418 19.1398 191.168 19.6521 190.148 20.1075ZM202.955 46.4375C202.122 47.125 201.288 47.4688 200.455 47.4688C200.314 47.4688 200.177 47.462 200.044 47.4485C198.151 47.2551 197.205 45.6785 197.205 42.7188V39.6044V23.7812C197.997 23.1354 198.83 22.8125 199.705 22.8125C201.872 22.8125 202.955 24.3958 202.955 27.5625V46.4375ZM199.205 24.8981V42.7188C199.205 44.1363 199.459 44.8459 199.668 45.1519C199.784 45.3214 199.932 45.4688 200.455 45.4688C200.581 45.4688 200.746 45.4445 200.955 45.3568V27.5625C200.955 26.145 200.701 25.4353 200.492 25.1294C200.376 24.9598 200.228 24.8125 199.705 24.8125C199.552 24.8125 199.386 24.8355 199.205 24.8981ZM97.3525 27.2813V49.0001C97.3525 49.7709 97.7588 50.5938 98.5713 51.4688C99.3838 52.3438 100.259 52.9688 101.196 53.3438L107.665 49.6876V48.2813C105.915 47.9272 105.04 46.4584 105.04 43.8751V23.4688L107.165 23.0626C108.519 23.0626 109.457 23.698 109.978 24.9688C110.519 26.2188 110.79 28.0418 110.79 30.4376V49.0001C110.79 49.7709 111.196 50.5938 112.009 51.4688C112.821 52.3438 113.696 52.9688 114.634 53.3438L121.634 49.4376V48.0313C121.293 47.9638 120.979 47.8708 120.693 47.7523C120.666 47.7409 120.639 47.7293 120.612 47.7175C119.189 47.0918 118.478 45.811 118.478 43.8751V24.4688C118.478 23.4688 118.196 22.3855 117.634 21.2188C117.092 20.0313 116.384 19.0105 115.509 18.1563C114.655 17.3022 113.769 16.8751 112.853 16.8751C112.269 16.8751 110.394 17.7709 107.228 19.5626L106.932 19.7238C105.956 20.258 105.325 20.6105 105.04 20.7813C105.04 20.0738 104.819 19.4312 104.377 18.8536C104.26 18.6999 104.126 18.5508 103.978 18.4063C103.29 17.7188 102.738 17.3022 102.321 17.1563C102.113 17.073 101.915 17.0105 101.728 16.9688C101.54 16.9063 101.363 16.8543 101.196 16.8126C98.3022 18.502 96.3055 19.6437 95.2062 20.2378C94.6516 20.5375 94.3253 20.6979 94.2275 20.7188V22.1251C94.3316 22.1251 94.4335 22.132 94.5333 22.1457C94.8147 22.1846 95.0794 22.2781 95.3274 22.4264C95.7487 22.6783 96.1217 23.0883 96.4463 23.6563C97.0505 24.6772 97.3525 25.8855 97.3525 27.2813ZM102.269 15.0416C102.528 15.1051 102.782 15.1882 103.029 15.2856C103.887 15.6004 104.693 16.2943 105.382 16.9823C105.668 17.2613 105.921 17.5604 106.139 17.8782L106.256 17.8143C107.849 16.9136 109.151 16.2182 110.147 15.7424C110.644 15.5048 111.096 15.3068 111.488 15.1639C111.81 15.0466 112.325 14.8751 112.853 14.8751C114.448 14.8751 115.81 15.6327 116.915 16.7337C117.969 17.7652 118.81 18.9844 119.445 20.3696C120.095 21.7239 120.478 23.0994 120.478 24.4688V43.8751C120.478 44.768 120.677 45.23 120.859 45.4702C121.025 45.688 121.334 45.9331 122.022 46.0694L123.634 46.3886V50.6119L114.776 55.5548L113.891 55.2008C112.633 54.6977 111.521 53.8823 110.543 52.8298C110.052 52.3009 109.611 51.7108 109.293 51.0646L101.345 55.5573L100.454 55.2008C99.1957 54.6977 98.0831 53.8823 97.1057 52.8298C96.1317 51.7808 95.3525 50.4913 95.3525 49.0001V27.2813C95.3525 26.18 95.1167 25.3367 94.7251 24.675L94.7174 24.6619L94.7098 24.6486C94.5228 24.3214 94.3774 24.1949 94.3181 24.154C94.2908 24.1351 94.2772 24.1309 94.2743 24.13C94.2714 24.1291 94.2587 24.1251 94.2275 24.1251H92.2275V19.102L93.6401 18.7993C93.7014 18.7695 93.7873 18.7262 93.9018 18.6665C94.2023 18.5097 94.6358 18.273 95.2106 17.9508C96.3565 17.3084 98.0138 16.3545 100.188 15.0853L100.891 14.6748L101.681 14.8723C101.875 14.9207 102.071 14.9776 102.269 15.0416ZM93.5346 18.8476C93.5349 18.8473 93.5444 18.843 93.5616 18.8363C93.5429 18.8447 93.5344 18.848 93.5346 18.8476ZM108.79 46.4685V30.4376C108.79 28.139 108.522 26.6403 108.142 25.7641L108.134 25.7458L108.127 25.7273C107.984 25.3778 107.841 25.2485 107.762 25.1947C107.697 25.1509 107.572 25.0878 107.324 25.0684L107.04 25.1227V43.8751C107.04 44.9769 107.233 45.5852 107.414 45.8905C107.549 46.1165 107.712 46.2503 108.062 46.3211L108.79 46.4685ZM81.4853 10.2188H83.2978V17.8125H86.5478L85.9228 20.9688H83.2978V43.875C83.2978 46.4583 84.1728 47.9271 85.9228 48.2812V49.6875L79.454 53.3438C78.5165 52.9688 77.6415 52.3438 76.829 51.4688C76.0165 50.5938 75.6103 49.7708 75.6103 49V21.0312H72.9853L73.6103 18.3438C74.4853 18.3438 75.4957 17.9375 76.6415 17.125C77.7874 16.3125 78.829 15.2812 79.7665 14.0312C80.5003 13.0529 81.0107 12.0618 81.2978 11.058C81.3775 10.7792 81.44 10.4995 81.4853 10.2188ZM85.2978 8.21875V15.8125H88.9827L87.5656 22.9688H85.2978V43.875C85.2978 44.9768 85.4903 45.5851 85.6722 45.8904C85.8068 46.1164 85.9696 46.2502 86.3195 46.321L87.9228 46.6455V50.8544L79.6025 55.5572L78.7113 55.2007C77.4534 54.6976 76.3408 53.8822 75.3634 52.8297C74.3894 51.7807 73.6103 50.4912 73.6103 49V23.0312H70.4668L72.022 16.3438H73.6103C73.8882 16.3438 74.4889 16.1996 75.4847 15.4935C76.4435 14.8137 77.3396 13.9338 78.1665 12.8312C78.9472 11.7903 79.3632 10.8155 79.5108 9.90028L79.782 8.21875H85.2978ZM40.3672 22.75V44C40.3672 45.7083 40.6901 47.2708 41.3359 48.6875C41.9818 50.1042 42.7422 51.2396 43.6172 52.0938C44.4922 52.9271 45.2734 53.3438 45.9609 53.3438C46.3776 53.3438 47.1693 53.1667 48.3359 52.8125C49.5234 52.4375 50.8568 51.9792 52.3359 51.4375C53.8359 50.8958 55.2839 50.3438 56.6797 49.7812C58.0755 49.1979 59.2318 48.6875 60.1484 48.25C61.0859 47.8125 61.5547 47.5312 61.5547 47.4062V24.2188C61.5547 23.5312 61.3359 22.7708 60.8984 21.9375C60.4818 21.0833 59.9609 20.2708 59.3359 19.5C58.7318 18.7292 58.1276 18.1042 57.5234 17.625C56.9193 17.125 56.4297 16.875 56.0547 16.875C55.763 16.875 55.0443 17.0521 53.8984 17.4062C52.7526 17.7604 51.4193 18.2188 49.8984 18.7812C48.3984 19.3229 46.9193 19.875 45.4609 20.4375C44.0026 21 42.7839 21.5 41.8047 21.9375C40.8464 22.3542 40.3672 22.625 40.3672 22.75ZM40.9978 20.1075C40.5045 20.3221 40.0723 20.5256 39.7424 20.712C39.5856 20.8006 39.3773 20.9267 39.1833 21.087C39.0885 21.1652 38.9319 21.3045 38.7835 21.5046C38.6563 21.676 38.3672 22.1145 38.3672 22.75V44C38.3672 45.9665 38.7404 47.8156 39.5161 49.5171C40.2377 51.0999 41.1272 52.458 42.2201 53.5249L42.2289 53.5335L42.2379 53.542C43.2265 54.4835 44.4891 55.3438 45.9609 55.3438C46.7223 55.3438 47.7951 55.0668 48.9169 54.7263L48.9276 54.723L48.9382 54.7197C50.1593 54.334 51.5201 53.8661 53.0185 53.3174C54.5389 52.7684 56.0085 52.208 57.4272 51.6363L57.4391 51.6315L57.4509 51.6266C58.8603 51.0376 60.0467 50.5145 61.0024 50.0586C61.4857 49.8328 61.9092 49.6197 62.2321 49.4259C62.3859 49.3337 62.5886 49.2036 62.7767 49.0407C62.8687 48.9609 63.0187 48.8211 63.1602 48.6229C63.2808 48.454 63.5547 48.024 63.5547 47.4062V24.2188C63.5547 23.1199 63.2106 22.0463 62.6832 21.0346C62.2017 20.0526 61.6054 19.1253 60.8999 18.2532C60.2314 17.4019 59.5279 16.6647 58.7826 16.071C58.1434 15.5441 57.1804 14.875 56.0547 14.875C55.6368 14.875 55.1671 14.98 54.8184 15.0659C54.4056 15.1676 53.8982 15.313 53.3078 15.4954C52.1195 15.8627 50.7528 16.3329 49.2118 16.9028C47.7011 17.4484 46.2108 18.0046 44.7412 18.5715C43.268 19.1397 42.0177 19.652 40.9978 20.1075ZM53.8047 46.4375C52.9714 47.125 52.138 47.4688 51.3047 47.4688C49.138 47.4688 48.0547 45.8854 48.0547 42.7188V23.7812C48.8464 23.1354 49.6797 22.8125 50.5547 22.8125C52.7214 22.8125 53.8047 24.3958 53.8047 27.5625V46.4375ZM50.0547 24.8981V42.7188C50.0547 44.1363 50.3085 44.8459 50.5178 45.1519C50.6338 45.3214 50.782 45.4688 51.3047 45.4688C51.4303 45.4688 51.5955 45.4445 51.8047 45.3568V27.5625C51.8047 26.145 51.5509 25.4353 51.3416 25.1294C51.2256 24.9598 51.0773 24.8125 50.5547 24.8125C50.4014 24.8125 50.2359 24.8355 50.0547 24.8981ZM5.1875 49.0001V27.2813C5.1875 25.8855 4.88542 24.6772 4.28125 23.6563C3.95666 23.0883 3.58369 22.6783 3.16234 22.4264C2.9144 22.2781 2.64971 22.1846 2.36826 22.1457C2.26845 22.132 2.16653 22.1251 2.0625 22.1251V20.7188C2.16031 20.6979 2.48652 20.5375 3.04116 20.2378C4.14049 19.6437 6.13719 18.502 9.03125 16.8126C9.19792 16.8543 9.375 16.9063 9.5625 16.9688C9.75 17.0105 9.94792 17.073 10.1562 17.1563C10.5729 17.3022 11.125 17.7188 11.8125 18.4063C11.9614 18.5508 12.0946 18.6999 12.2122 18.8536C12.6541 19.4312 12.875 20.0738 12.875 20.7813C13.1598 20.6105 13.7906 20.258 14.7674 19.7238L15.0625 19.5626C18.2292 17.7709 20.1042 16.8751 20.6875 16.8751C21.6042 16.8751 22.4896 17.3022 23.3438 18.1563C24.2188 19.0105 24.9271 20.0313 25.4688 21.2188C26.0312 22.3855 26.3125 23.4688 26.3125 24.4688V43.8751C26.3125 45.811 27.0239 47.0918 28.4468 47.7175C28.4737 47.7293 28.5009 47.7409 28.5283 47.7523C28.8141 47.8708 29.1276 47.9638 29.4688 48.0313V49.4376L22.4688 53.3438C21.5312 52.9688 20.6562 52.3438 19.8438 51.4688C19.0312 50.5938 18.625 49.7709 18.625 49.0001V30.4376C18.625 28.0418 18.3542 26.2188 17.8125 24.9688C17.2917 23.698 16.3542 23.0626 15 23.0626L12.875 23.4688V43.8751C12.875 46.4584 13.75 47.9272 15.5 48.2813V49.6876L9.03125 53.3438C8.09375 52.9688 7.21875 52.3438 6.40625 51.4688C5.59375 50.5938 5.1875 49.7709 5.1875 49.0001ZM10.8642 15.2856C10.6169 15.1882 10.3631 15.1051 10.104 15.0416C9.90595 14.9776 9.7098 14.9207 9.51632 14.8723L8.72629 14.6748L8.02299 15.0853C5.8488 16.3545 4.19151 17.3084 3.04552 17.9508C2.47075 18.273 2.03722 18.5097 1.73674 18.6665C1.6223 18.7262 1.53641 18.7695 1.47506 18.7993L0.0625 19.102V24.1251H2.0625C2.09358 24.1251 2.10633 24.1291 2.10924 24.13C2.11218 24.1309 2.12582 24.1352 2.15305 24.154C2.2124 24.1949 2.35776 24.3214 2.54476 24.6486L2.55233 24.6619L2.5601 24.675C2.95171 25.3367 3.1875 26.18 3.1875 27.2813V49.0001C3.1875 50.4913 3.96662 51.7808 4.94066 52.8298C5.91805 53.8823 7.03064 54.6977 8.28847 55.2008L9.17971 55.5573L17.1284 51.0646C17.4455 51.7108 17.887 52.3009 18.3782 52.8298C19.3556 53.8823 20.4681 54.6977 21.726 55.2008L22.611 55.5548L31.4688 50.6119V46.3886L29.8572 46.0694C29.1685 45.9331 28.8597 45.688 28.6943 45.4702C28.5119 45.23 28.3125 44.768 28.3125 43.8751V24.4688C28.3125 23.0994 27.9299 21.7238 27.2795 20.3694C26.645 18.9842 25.8038 17.765 24.7493 16.7335C23.6453 15.6326 22.2829 14.8751 20.6875 14.8751C20.1603 14.8751 19.6452 15.0466 19.323 15.1639C18.9311 15.3068 18.4788 15.5048 17.9815 15.7424C16.9856 16.2182 15.6835 16.9135 14.0911 17.8143L13.9739 17.8782C13.7564 17.5604 13.5028 17.2612 13.2169 16.9823C12.5278 16.2943 11.7218 15.6004 10.8642 15.2856ZM1.36962 18.8476C1.37012 18.8472 1.3796 18.8429 1.39654 18.8363C1.37758 18.8448 1.36911 18.8481 1.36962 18.8476ZM16.625 30.4376V46.4685L15.8967 46.3211C15.5468 46.2503 15.3841 46.1165 15.2495 45.8905C15.0675 45.5852 14.875 44.9769 14.875 43.8751V25.1227L15.1589 25.0684C15.4073 25.0878 15.5319 25.1509 15.5966 25.1947C15.6759 25.2485 15.8186 25.3778 15.9619 25.7273L15.9695 25.7458L15.9774 25.7641C16.3571 26.6403 16.625 28.139 16.625 30.4376Z" fill="#3C3C3C"/>
</svg>
